<?xml version="1.0" encoding="UTF-8"?>
<svg width="114px" height="70px" viewBox="0 0 114 70" version="1.1" xmlns="http://www.w3.org/2000/svg" xmlns:xlink="http://www.w3.org/1999/xlink">
    <g stroke="none" stroke-width="1" fill="none" fill-rule="evenodd">
        <g transform="translate(-111.000000, -3023.000000)">
            <g transform="translate(114.000000, 3026.000000)">
                <polygon fill="#FEF8F2" points="82.3581053 43.6185368 108.746623 43.6185368 108.746623 1.06456618 82.3581053 1.06456618"></polygon>
                <polygon stroke="#1D1D1B" stroke-width="4.5" points="82.3581053 43.6185368 108.746623 43.6185368 108.746623 1.06456618 82.3581053 1.06456618"></polygon>
                <polygon fill="#1D1D1B" points="93.5105263 36.0632426 97.3522982 36.0632426 97.3522982 32.387875 93.5105263 32.387875"></polygon>
                <polygon stroke="#1D1D1B" stroke-width="4.5" points="0.239035088 43.5822132 66.0549561 43.5822132 66.0549561 0.239639706 0.239035088 0.239639706"></polygon>
                <polygon fill="#FEF8F2" points="13.1832632 64.2311838 53.1097719 64.2311838 53.1097719 25.237875 13.1832632 25.237875"></polygon>
                <polygon stroke="#1D1D1B" stroke-width="4.5" points="13.1832632 64.2311838 53.1097719 64.2311838 53.1097719 25.237875 13.1832632 25.237875"></polygon>
                <polygon fill="#1D1D1B" points="10.3244035 12.6297868 14.1671316 12.6297868 14.1671316 8.95441912 10.3244035 8.95441912"></polygon>
            </g>
        </g>
    </g>
</svg>