<?xml version="1.0" encoding="UTF-8"?>
<svg width="91px" height="78px" viewBox="0 0 91 78" version="1.1" xmlns="http://www.w3.org/2000/svg" xmlns:xlink="http://www.w3.org/1999/xlink">
    <g stroke="none" stroke-width="1" fill="none" fill-rule="evenodd">
        <g transform="translate(-566.000000, -3017.000000)">
            <g transform="translate(569.000000, 3019.000000)">
                <g transform="translate(47.252747, 21.009264)">
                    <path d="M24.7243385,14.5691769 L24.7243385,6.16922821 C24.7243385,2.90468974 22.0876352,0.258715385 18.8357011,0.258715385 L6.21449231,0.258715385 C2.96255824,0.258715385 0.325854945,2.90468974 0.325854945,6.16922821 L0.325854945,14.5691769" fill="#FEF8F2"></path>
                    <path d="M24.7243385,14.5691769 L24.7243385,6.16922821 C24.7243385,2.90468974 22.0876352,0.258715385 18.8357011,0.258715385 L6.21449231,0.258715385 C2.96255824,0.258715385 0.325854945,2.90468974 0.325854945,6.16922821 L0.325854945,14.5691769" stroke="#1D1D1B" stroke-width="4.5"></path>
                </g>
                <polyline stroke="#1D1D1B" stroke-width="4.5" points="0.236452747 73.7638641 0.236452747 35.2990436 85.1704308 35.2990436 85.1704308 73.4080949"></polyline>
                <path d="M29.3924374,21.2676 L16.7721736,21.2676 C13.5192945,21.2676 10.8835363,23.9145231 10.8835363,27.1781128 L10.8835363,49.491959 L14.9737341,49.491959 L14.9737341,72.9518564 L31.1908769,72.9518564 L31.1908769,49.491959 L35.2810747,49.491959 L35.2810747,27.1781128 C35.2810747,23.9145231 32.6443714,21.2676 29.3924374,21.2676" fill="#FEF8F2"></path>
                <path d="M29.3924374,21.2676 L16.7721736,21.2676 C13.5192945,21.2676 10.8835363,23.9145231 10.8835363,27.1781128 L10.8835363,49.491959 L14.9737341,49.491959 L14.9737341,72.9518564 L31.1908769,72.9518564 L31.1908769,49.491959 L35.2810747,49.491959 L35.2810747,27.1781128 C35.2810747,23.9145231 32.6443714,21.2676 29.3924374,21.2676 Z" stroke="#1D1D1B" stroke-width="4.5"></path>
                <path d="M29.8677055,7.04925897 C29.8677055,10.8118744 26.8302989,13.8610538 23.082211,13.8610538 C19.3341231,13.8610538 16.2957714,10.8118744 16.2957714,7.04925897 C16.2957714,3.28664359 19.3341231,0.237464103 23.082211,0.237464103 C26.8302989,0.237464103 29.8677055,3.28664359 29.8677055,7.04925897" fill="#FEF8F2"></path>
                <path d="M29.8677055,7.04925897 C29.8677055,10.8118744 26.8302989,13.8610538 23.082211,13.8610538 C19.3341231,13.8610538 16.2957714,10.8118744 16.2957714,7.04925897 C16.2957714,3.28664359 19.3341231,0.237464103 23.082211,0.237464103 C26.8302989,0.237464103 29.8677055,3.28664359 29.8677055,7.04925897 Z" stroke="#1D1D1B" stroke-width="4.5"></path>
                <path d="M66.563811,7.04925897 C66.563811,10.8118744 63.5254593,13.8610538 59.7783165,13.8610538 C56.0302286,13.8610538 52.9918769,10.8118744 52.9918769,7.04925897 C52.9918769,3.28664359 56.0302286,0.237464103 59.7783165,0.237464103 C63.5254593,0.237464103 66.563811,3.28664359 66.563811,7.04925897" fill="#FEF8F2"></path>
                <path d="M66.563811,7.04925897 C66.563811,10.8118744 63.5254593,13.8610538 59.7783165,13.8610538 C56.0302286,13.8610538 52.9918769,10.8118744 52.9918769,7.04925897 C52.9918769,3.28664359 56.0302286,0.237464103 59.7783165,0.237464103 C63.5254593,0.237464103 66.563811,3.28664359 66.563811,7.04925897 Z" stroke="#1D1D1B" stroke-width="4.5"></path>
            </g>
        </g>
    </g>
</svg>