<?xml version="1.0" encoding="utf-8"?>
<svg width="30px" height="50px" viewBox="0 0 30 50" version="1.1" xmlns="http://www.w3.org/2000/svg">
  <defs>
    <polygon points="0 0.000192847435 29.3791474 0.000192847435 29.3791474 49.4957727 0 49.4957727"/>
  </defs>
  <path d="M 20.778 0 C 20.778 1.676 20.23 3.126 19.135 4.351 C 18.04 5.575 16.687 6.187 15.076 6.187 C 13.466 6.187 12.096 5.575 10.969 4.351 C 9.841 3.126 9.278 1.676 9.278 0 L 0 0 L 0 49.496 L 9.278 49.496 C 9.278 47.82 9.825 46.37 10.921 45.146 C 12.016 43.921 13.369 43.309 14.98 43.309 C 16.59 43.309 17.943 43.921 19.039 45.146 C 20.134 46.37 20.682 47.82 20.682 49.496 L 29.379 49.496 L 29.379 0 L 20.778 0 Z M 23.387 46.402 C 22.743 44.598 21.664 43.115 20.15 41.956 C 18.636 40.796 16.912 40.216 14.98 40.216 C 13.111 40.216 11.42 40.796 9.906 41.956 C 8.392 43.115 7.312 44.598 6.668 46.402 L 3.092 46.402 L 3.092 17.788 L 3.092 15.468 L 3.092 3.093 L 6.765 3.093 C 7.345 4.898 8.392 6.381 9.906 7.54 C 11.42 8.701 13.143 9.28 15.076 9.28 C 17.009 9.28 18.733 8.701 20.247 7.54 C 21.761 6.381 22.808 4.898 23.387 3.093 L 26.287 3.093 L 26.287 15.468 L 26.287 17.788 L 26.287 46.402 L 23.387 46.402 Z" fill="#000000" mask="url(#mask-2)"/>
</svg>