<?xml version="1.0" encoding="utf-8"?>
<svg width="48px" height="47px" viewBox="0 0 48 47" version="1.1" xmlns="http://www.w3.org/2000/svg">
  <g transform="matrix(1, 0, 0, 1, -660, -539)" fill="#000000" stroke="#FEF8F2" stroke-width="2">
    <path d="M693.64668,544.771887 C695.797175,544.771887 697.613953,545.613429 699.097055,547.296549 C700.580164,548.979662 701.3217,551.041913 701.3217,553.48335 C701.3217,555.000006 701.034355,556.46115 700.459656,557.866831 C699.884949,559.272513 699.004367,560.761398 697.817887,562.333537 C696.631407,563.905683 695.13905,565.607263 693.340789,567.438346 C691.542521,569.269429 689.438398,571.350174 687.028355,573.680638 C686.472194,574.235515 685.897495,574.799626 685.304251,575.372998 C684.711015,575.946363 684.117778,576.54747 683.524535,577.176326 C682.894216,576.54747 682.282449,575.946363 681.689205,575.372998 C681.095962,574.799626 680.52127,574.235515 679.965101,573.680638 C677.555059,571.350174 675.460204,569.269429 673.680481,567.438346 C671.900757,565.607263 670.417669,563.905683 669.231189,562.333537 C668.044706,560.761398 667.164125,559.272513 666.589422,557.866831 C666.01472,556.46115 665.727372,555.000006 665.727372,553.48335 C665.727372,551.041913 666.468913,548.979662 667.952018,547.296549 C669.435123,545.613429 671.251901,544.771887 673.402404,544.771887 C674.588884,544.771887 675.691924,545.049318 676.711559,545.604196 C677.731194,546.159066 678.797159,547.009856 679.909489,548.156593 L683.524535,551.874229 L687.25082,548.156593 C688.17776,547.342785 689.178844,546.575221 690.254091,545.853886 C691.329339,545.132551 692.460193,544.771887 693.64668,544.771887 Z M693.64668,540 C691.718642,540 689.85552,540.462391 688.057252,541.38718 C686.258991,542.311962 684.748097,543.569659 683.524535,545.160299 C682.300979,543.569659 680.790085,542.311962 678.991824,541.38718 C677.193556,540.462391 675.330435,540 673.402404,540 C671.659755,540 670.02836,540.351417 668.508183,541.05425 C666.987997,541.757091 665.671762,542.718862 664.559433,543.939577 C663.447105,545.160299 662.575794,546.584454 661.945474,548.212084 C661.315155,549.839714 661,551.596783 661,553.48335 C661,555.813821 661.454194,557.996293 662.362595,560.03083 C663.270997,562.06536 664.568694,564.12761 666.255725,566.217631 C667.942757,568.307658 669.972726,570.508618 672.345693,572.820594 C674.718661,575.132562 677.351132,577.731182 680.243186,580.616523 L683.524535,583.834772 L686.805891,580.561036 C689.697944,577.712686 692.330416,575.132562 694.703383,572.820594 C697.07635,570.508618 699.106316,568.307658 700.793352,566.217631 C702.480381,564.12761 703.77808,562.06536 704.686482,560.03083 C705.594885,557.996293 706.049076,555.813821 706.049076,553.48335 C706.049076,551.596783 705.733924,549.839714 705.103598,548.212084 C704.47328,546.584454 703.601973,545.160299 702.489643,543.939577 C701.377313,542.718862 700.061077,541.757091 698.5409,541.05425 C697.020716,540.351417 695.389321,540 693.64668,540 Z"/>
  </g>
</svg>