<?xml version="1.0" encoding="utf-8"?>
<svg width="47px" height="47px" viewBox="0 0 47 47" version="1.1" xmlns="http://www.w3.org/2000/svg">
  <g transform="matrix(1, 0, 0, 1, -114, -534)" fill="#000000" stroke="#FEF8F2">
    <path d="M138.880597,546.184056 L138.880597,558.001172 L149.115139,564.01524 L147.409382,566.864009 L135.469083,559.689332 L135.469083,546.184056 L138.880597,546.184056 Z M137.707889,575.515826 C142.683036,575.515826 146.965155,573.73976 150.554374,570.187577 C154.143587,566.635385 155.938166,562.397443 155.938166,557.473623 C155.938166,552.549802 154.143587,548.31186 150.554374,544.759668 C146.965155,541.207484 142.683036,539.431419 137.707889,539.431419 C132.732742,539.431419 128.450623,541.207484 124.861404,544.759668 C121.272192,548.31186 119.477612,552.549802 119.477612,557.473623 C119.477612,562.397443 121.272192,566.635385 124.861404,570.187577 C128.450623,573.73976 132.732742,575.515826 137.707889,575.515826 Z M137.707889,535 C143.962361,535 149.310571,537.198105 153.752669,541.594369 C158.19476,545.99064 160.415778,551.283675 160.415778,557.473623 C160.415778,563.66357 158.19476,568.956605 153.752669,573.352872 C149.310571,577.749143 143.962361,579.947245 137.707889,579.947245 C131.453417,579.947245 126.105208,577.749143 121.663113,573.352872 C117.221016,568.956605 115,563.66357 115,557.473623 C115,551.283675 117.221016,545.99064 121.663113,541.594369 C126.105208,537.198105 131.453417,535 137.707889,535 Z"/>
  </g>
</svg>