<?xml version="1.0" encoding="utf-8"?>
<svg width="146px" height="54px" viewBox="0 0 146 54" version="1.1" xmlns="http://www.w3.org/2000/svg">
  <defs>
    <polygon points="0 53.6506024 145.777931 53.6506024 145.777931 0.168692441 0 0.168692441"/>
  </defs>
  <path d="M 67.293 14.934 L 65.313 20.233 L 69.273 20.233 L 67.293 14.934 Z M 70.796 24.627 L 70.015 22.541 L 64.57 22.541 L 63.771 24.627 L 60.687 24.627 L 65.598 12.313 L 68.987 12.313 L 73.88 24.627 L 70.796 24.627 Z" fill="#FFFFFF"/>
  <path d="M 81.774 16.238 C 81.774 15.212 80.987 14.59 79.943 14.59 L 77.215 14.59 L 77.215 17.886 L 79.943 17.886 C 80.987 17.886 81.774 17.263 81.774 16.238 Z M 81.518 24.515 L 79.119 20.175 L 77.215 20.175 L 77.215 24.515 L 74.614 24.515 L 74.614 12.3 L 80.328 12.3 C 82.873 12.3 84.429 13.967 84.429 16.238 C 84.429 18.399 83.075 19.552 81.756 19.864 L 84.503 24.515 L 81.518 24.515 Z" fill="#FFFFFF"/>
  <polygon fill="#FFFFFF" points="89.026 24.515 89.026 14.589 85.455 14.589 85.455 12.301 95.198 12.301 95.198 14.589 91.645 14.589 91.645 24.515"/>
  <polygon fill="#FFFFFF" mask="url(#mask-2)" points="96.864 24.515 99.464 24.515 99.464 12.3 96.864 12.3"/>
  <path d="M 101.296 18.417 C 101.296 14.663 104.134 12.099 107.796 12.099 C 110.489 12.099 112.046 13.564 112.906 15.084 L 110.672 16.183 C 110.159 15.194 109.061 14.406 107.796 14.406 C 105.581 14.406 103.97 16.109 103.97 18.417 C 103.97 20.725 105.581 22.428 107.796 22.428 C 109.061 22.428 110.159 21.659 110.672 20.651 L 112.906 21.732 C 112.027 23.252 110.489 24.736 107.796 24.736 C 104.134 24.736 101.296 22.172 101.296 18.417" fill="#FFFFFF" mask="url(#mask-2)"/>
  <polygon fill="#FFFFFF" mask="url(#mask-2)" points="121.715 24.515 118.016 19.626 117.063 20.761 117.063 24.515 114.463 24.515 114.463 12.301 117.063 12.301 117.063 17.758 121.385 12.301 124.59 12.301 119.737 18.033 124.92 24.515"/>
  <polygon fill="#FFFFFF" mask="url(#mask-2)" points="126.109 24.515 126.109 12.301 134.753 12.301 134.753 14.589 128.71 14.589 128.71 17.172 134.625 17.172 134.625 19.461 128.71 19.461 128.71 22.226 134.753 22.226 134.753 24.515"/>
  <polygon fill="#FFFFFF" mask="url(#mask-2)" points="139.606 24.515 139.606 14.589 136.035 14.589 136.035 12.301 145.778 12.301 145.778 14.589 142.225 14.589 142.225 24.515"/>
  <path d="M 68.849 37.838 C 68.849 37.069 68.299 36.409 67.274 36.409 L 63.922 36.409 L 63.922 39.248 L 67.274 39.248 C 68.263 39.248 68.849 38.717 68.849 37.838 Z M 68.611 32.857 C 68.611 32.087 68.061 31.52 67.182 31.52 L 63.922 31.52 L 63.922 34.175 L 67.182 34.175 C 68.061 34.175 68.611 33.626 68.611 32.857 Z M 61.321 41.5 L 61.321 29.285 L 67.75 29.285 C 70.076 29.285 71.266 30.769 71.266 32.399 C 71.266 33.937 70.313 34.963 69.16 35.201 C 70.46 35.402 71.504 36.666 71.504 38.204 C 71.504 40.035 70.277 41.5 67.951 41.5 L 61.321 41.5 Z" fill="#FFFFFF" mask="url(#mask-2)"/>
  <path d="M 72.877 35.402 C 72.877 31.648 75.716 29.084 79.378 29.084 C 82.07 29.084 83.627 30.549 84.488 32.069 L 82.253 33.168 C 81.741 32.179 80.642 31.391 79.378 31.391 C 77.163 31.391 75.551 33.095 75.551 35.402 C 75.551 37.71 77.163 39.413 79.378 39.413 C 80.642 39.413 81.741 38.644 82.253 37.636 L 84.488 38.717 C 83.609 40.237 82.07 41.721 79.378 41.721 C 75.716 41.721 72.877 39.156 72.877 35.402" fill="#FFFFFF" mask="url(#mask-2)"/>
  <polygon fill="#FFFFFF" mask="url(#mask-2)" points="94.469 41.501 88.645 33.534 88.645 41.501 86.044 41.501 86.044 29.286 88.718 29.286 94.377 36.959 94.377 29.286 96.978 29.286 96.978 41.501"/>
  <polygon fill="#FFFFFF" mask="url(#mask-2)" points="51.485 21.777 51.485 32.329 51.485 35.802 34.065 28.96 34.065 25.146 51.485 18.303"/>
  <polygon fill="#FFFFFF" mask="url(#mask-2)" points="0 32.042 0 21.49 0 18.016 17.42 24.859 17.42 28.672 0 35.516"/>
  <polygon fill="#FFFFFF" mask="url(#mask-2)" points="34.169 2.049 43.307 7.325 46.315 9.062 31.679 20.727 28.377 18.821 31.161 0.312"/>
  <polygon fill="#FFFFFF" mask="url(#mask-2)" points="17.316 51.77 8.178 46.494 5.17 44.757 19.806 33.092 23.108 34.998 20.324 53.507"/>
  <polygon fill="#FFFFFF" mask="url(#mask-2)" points="8.427 7.181 17.564 1.906 20.573 0.169 23.357 18.677 20.055 20.584 5.419 8.918"/>
  <polygon fill="#FFFFFF" mask="url(#mask-2)" points="43.059 46.638 33.921 51.914 30.912 53.651 28.128 35.142 31.43 33.235 46.067 44.901"/>
</svg>