<?xml version="1.0" encoding="utf-8"?>
<svg width="141px" height="53px" viewBox="0 0 141 53" version="1.1" xmlns="http://www.w3.org/2000/svg">
  <path d="M 64.843 14.467 L 63.004 19.57 L 66.682 19.57 L 64.843 14.467 Z M 68.097 23.802 L 67.372 21.793 L 62.314 21.793 L 61.571 23.802 L 58.706 23.802 L 63.269 11.942 L 66.417 11.942 L 70.962 23.802 L 68.097 23.802 Z" style="fill: rgb(220, 61, 67);"/>
  <path d="M 78.974 15.765 C 78.974 14.769 78.214 14.165 77.205 14.165 L 74.57 14.165 L 74.57 17.366 L 77.205 17.366 C 78.214 17.366 78.974 16.761 78.974 15.765 Z M 78.726 23.802 L 76.409 19.588 L 74.57 19.588 L 74.57 23.802 L 72.059 23.802 L 72.059 11.942 L 77.577 11.942 C 80.035 11.942 81.538 13.56 81.538 15.765 C 81.538 17.863 80.23 18.984 78.956 19.286 L 81.609 23.802 L 78.726 23.802 Z" style="fill: rgb(220, 61, 67);"/>
  <polyline points="85.978 23.802 85.978 14.165 82.529 14.165 82.529 11.942 91.938 11.942 91.938 14.165 88.507 14.165 88.507 23.802 85.978 23.802" style="fill: rgb(220, 61, 67);"/>
  <polygon points="93.547 23.802 96.058 23.802 96.058 11.942 93.547 11.942" style="fill: rgb(220, 61, 67);"/>
  <path d="M 97.827 17.881 C 97.827 14.236 100.568 11.747 104.105 11.747 C 106.705 11.747 108.209 13.169 109.04 14.645 L 106.882 15.712 C 106.387 14.752 105.326 13.987 104.105 13.987 C 101.965 13.987 100.409 15.641 100.409 17.881 C 100.409 20.122 101.965 21.776 104.105 21.776 C 105.326 21.776 106.387 21.028 106.882 20.05 L 109.04 21.1 C 108.19 22.575 106.705 24.016 104.105 24.016 C 100.568 24.016 97.827 21.527 97.827 17.881" style="fill: rgb(220, 61, 67);"/>
  <polyline points="117.547 23.802 113.974 19.055 113.054 20.157 113.054 23.802 110.543 23.802 110.543 11.942 113.054 11.942 113.054 17.241 117.228 11.942 120.323 11.942 115.636 17.508 120.642 23.802 117.547 23.802" style="fill: rgb(220, 61, 67);"/>
  <polyline points="121.791 23.802 121.791 11.942 130.138 11.942 130.138 14.165 124.302 14.165 124.302 16.672 130.015 16.672 130.015 18.895 124.302 18.895 124.302 21.58 130.138 21.58 130.138 23.802 121.791 23.802" style="fill: rgb(220, 61, 67);"/>
  <polyline points="134.825 23.802 134.825 14.165 131.376 14.165 131.376 11.942 140.786 11.942 140.786 14.165 137.354 14.165 137.354 23.802 134.825 23.802" style="fill: rgb(220, 61, 67);"/>
  <path d="M 66.491 36.737 C 66.491 35.99 65.96 35.35 64.97 35.35 L 61.733 35.35 L 61.733 38.106 L 64.97 38.106 C 65.925 38.106 66.491 37.59 66.491 36.737 Z M 66.261 31.9 C 66.261 31.153 65.73 30.602 64.881 30.602 L 61.733 30.602 L 61.733 33.18 L 64.881 33.18 C 65.73 33.18 66.261 32.647 66.261 31.9 Z M 59.222 40.293 L 59.222 28.433 L 65.43 28.433 C 67.676 28.433 68.825 29.874 68.825 31.456 C 68.825 32.95 67.906 33.945 66.791 34.176 C 68.047 34.372 69.055 35.599 69.055 37.092 C 69.055 38.87 67.87 40.293 65.624 40.293 L 59.222 40.293 Z" style="fill: rgb(220, 61, 67);"/>
  <path d="M 70.381 34.372 C 70.381 30.727 73.123 28.237 76.66 28.237 C 79.26 28.237 80.763 29.66 81.594 31.136 L 79.436 32.203 C 78.941 31.242 77.88 30.478 76.66 30.478 C 74.52 30.478 72.964 32.131 72.964 34.372 C 72.964 36.612 74.52 38.266 76.66 38.266 C 77.88 38.266 78.941 37.519 79.436 36.541 L 81.594 37.59 C 80.745 39.066 79.26 40.506 76.66 40.506 C 73.123 40.506 70.381 38.017 70.381 34.372" style="fill: rgb(220, 61, 67);"/>
  <polyline points="91.233 40.293 85.609 32.558 85.609 40.293 83.097 40.293 83.097 28.433 85.68 28.433 91.145 35.883 91.145 28.433 93.656 28.433 93.656 40.293 91.233 40.293" style="fill: rgb(220, 61, 67);"/>
  <polyline points="49.722 21.143 49.722 34.761 32.898 28.117 32.898 24.414 49.722 17.77 49.722 21.143" style="fill: rgb(220, 61, 67);"/>
  <polyline points="0 31.109 0 20.864 0 17.492 16.824 24.136 16.824 27.838 0 34.482 0 31.109" style="fill: rgb(220, 61, 67);"/>
  <polyline points="32.999 1.989 44.729 8.798 30.594 20.124 27.405 18.273 30.094 0.303 32.999 1.989" style="fill: rgb(220, 61, 67);"/>
  <polyline points="16.723 50.263 4.993 43.455 19.128 32.129 22.317 33.98 19.629 51.95 16.723 50.263" style="fill: rgb(220, 61, 67);"/>
  <polyline points="8.138 6.972 19.868 0.164 22.557 18.134 19.368 19.985 5.233 8.658 8.138 6.972" style="fill: rgb(220, 61, 67);"/>
  <polyline points="41.584 45.281 29.854 52.089 27.165 34.119 30.354 32.268 44.489 43.594 41.584 45.281" style="fill: rgb(220, 61, 67);"/>
</svg>