<?xml version="1.0" encoding="utf-8"?>
<svg width="173px" height="93px" viewBox="0 0 173 93" version="1.1" xmlns="http://www.w3.org/2000/svg">
  <defs>
    <polygon id="path-1" points="0.000166666667 0 49.6875 0 49.6875 38.64575 0.000166666667 38.64575"/>
    <polygon id="path-3" points="0 0 41 0 41 36.1190476 0 36.1190476"/>
    <polygon id="path-5" points="0.000157446809 0.000236170213 36.5079787 0.000236170213 36.5079787 36.5079787 0.000157446809 36.5079787"/>
    <polygon id="path-7" points="3.14606742e-05 2.35955056e-05 48.9331461 2.35955056e-05 48.9331461 32.6221236 3.14606742e-05 32.6221236"/>
  </defs>
  <path d="M 162.164 71.202 C 163.084 71.202 163.544 71.633 163.544 72.496 C 163.544 73.013 163.371 73.458 163.026 73.832 C 162.681 74.206 162.221 74.393 161.646 74.393 C 160.725 74.393 160.266 73.962 160.266 73.099 C 160.266 72.524 160.453 72.064 160.827 71.719 C 161.2 71.374 161.646 71.202 162.164 71.202 Z M 169.927 66.716 C 169.927 66.486 169.841 66.371 169.669 66.371 L 168.029 66.371 C 167.857 66.371 167.771 66.457 167.771 66.63 L 166.39 75.601 L 166.39 75.687 C 166.39 75.86 166.477 75.946 166.649 75.946 L 168.116 75.946 C 168.346 75.946 168.489 75.773 168.547 75.428 L 169.927 66.716 Z M 165.787 69.562 L 164.234 69.562 C 164.004 69.562 163.86 69.792 163.803 70.252 C 163.458 69.677 162.796 69.39 161.819 69.39 C 160.725 69.39 159.819 69.778 159.101 70.555 C 158.383 71.331 158.023 72.265 158.023 73.358 C 158.023 74.163 158.267 74.825 158.756 75.342 C 159.245 75.86 159.921 76.118 160.784 76.118 C 161.704 76.118 162.451 75.773 163.026 75.083 L 163.026 75.601 C 163.026 75.831 163.113 75.946 163.285 75.946 L 164.751 75.946 C 164.982 75.946 165.154 75.773 165.269 75.428 L 166.132 69.907 C 166.132 69.677 166.017 69.562 165.787 69.562 Z M 158.54 68.787 C 158.54 67.176 157.563 66.371 155.608 66.371 L 152.157 66.371 C 151.869 66.371 151.697 66.514 151.639 66.802 L 150.259 75.601 C 150.259 75.831 150.345 75.946 150.518 75.946 L 152.329 75.946 C 152.502 75.946 152.617 75.86 152.674 75.687 L 153.019 73.186 C 153.078 73.071 153.149 72.97 153.235 72.884 C 153.322 72.797 153.423 72.754 153.537 72.754 L 153.882 72.754 L 154.314 72.754 L 154.573 72.754 C 155.838 72.754 156.815 72.409 157.505 71.719 C 158.195 71.029 158.54 70.052 158.54 68.787 Z M 144.824 78.017 L 150.345 70.08 L 150.345 69.907 C 150.345 69.677 150.259 69.562 150.087 69.562 L 148.448 69.562 C 148.275 69.562 148.131 69.649 148.016 69.822 L 145.774 73.186 L 144.824 69.907 C 144.71 69.677 144.538 69.562 144.307 69.562 L 142.754 69.562 C 142.524 69.562 142.409 69.677 142.409 69.907 C 142.409 69.907 142.554 70.324 142.841 71.158 C 143.128 71.992 143.43 72.855 143.746 73.747 C 144.063 74.637 144.249 75.141 144.307 75.256 C 143.099 76.923 142.495 77.844 142.495 78.017 C 142.495 78.189 142.582 78.275 142.754 78.275 L 144.394 78.275 C 144.566 78.275 144.71 78.189 144.824 78.017 Z M 141.288 69.562 L 139.735 69.562 C 139.505 69.562 139.361 69.792 139.304 70.252 C 138.901 69.677 138.24 69.39 137.32 69.39 C 136.284 69.39 135.393 69.778 134.646 70.555 C 133.898 71.331 133.524 72.265 133.524 73.358 C 133.524 74.163 133.783 74.825 134.3 75.342 C 134.819 75.86 135.479 76.118 136.284 76.118 C 137.204 76.118 137.981 75.773 138.614 75.083 C 138.556 75.256 138.528 75.428 138.528 75.601 C 138.528 75.831 138.614 75.946 138.786 75.946 L 140.253 75.946 C 140.483 75.946 140.655 75.773 140.77 75.428 L 141.633 69.907 C 141.633 69.677 141.518 69.562 141.288 69.562 Z M 134.042 68.787 C 134.042 67.176 133.064 66.371 131.108 66.371 L 127.659 66.371 C 127.371 66.371 127.199 66.514 127.141 66.802 L 125.76 75.601 C 125.703 75.831 125.789 75.946 126.019 75.946 L 127.659 75.946 C 127.945 75.946 128.119 75.773 128.176 75.428 L 128.521 73.186 C 128.521 73.071 128.564 72.97 128.65 72.884 C 128.737 72.797 128.851 72.754 128.995 72.754 L 129.384 72.754 L 129.772 72.754 L 130.074 72.754 C 131.339 72.754 132.317 72.409 133.007 71.719 C 133.697 71.029 134.042 70.052 134.042 68.787 Z M 172.688 57.141 L 172.688 87.505 C 172.688 88.655 172.285 89.633 171.48 90.438 C 170.675 91.243 169.697 91.646 168.547 91.646 L 127.141 91.646 C 125.99 91.646 125.013 91.243 124.208 90.438 C 123.403 89.633 123 88.655 123 87.505 L 123 57.141 C 123 55.991 123.403 55.012 124.208 54.207 C 125.013 53.402 125.99 53 127.141 53 L 168.547 53 C 169.697 53 170.675 53.402 171.48 54.207 C 172.285 55.012 172.688 55.991 172.688 57.141 Z M 154.4 68.355 C 155.435 68.355 155.981 68.671 156.039 69.304 C 156.039 70.339 155.407 70.857 154.141 70.857 L 153.451 70.857 L 153.796 68.527 C 153.796 68.412 153.882 68.355 154.055 68.355 L 154.4 68.355 Z M 129.901 68.355 C 130.534 68.355 130.979 68.427 131.239 68.571 C 131.497 68.714 131.569 69.073 131.454 69.649 C 131.339 70.454 130.706 70.857 129.556 70.857 L 128.866 70.857 L 129.298 68.527 C 129.298 68.412 129.384 68.355 129.556 68.355 L 129.901 68.355 Z M 139.045 72.496 C 139.045 73.013 138.873 73.458 138.528 73.832 C 138.183 74.206 137.722 74.393 137.147 74.393 C 136.227 74.393 135.767 73.962 135.767 73.099 C 135.767 72.582 135.954 72.136 136.328 71.762 C 136.701 71.388 137.147 71.202 137.665 71.202 C 138.585 71.202 139.045 71.633 139.045 72.496 Z" id="Fill-1" mask="url(#mask-2)" style="fill: rgb(254, 248, 242);"/>
  <path d="M 25.792 13.642 L 24.265 13.642 L 24.265 9.095 C 24.265 7.84 24.028 6.667 23.554 5.578 C 23.08 4.464 22.429 3.493 21.6 2.664 C 20.771 1.836 19.8 1.184 18.687 0.711 C 17.597 0.237 16.425 0 15.17 0 C 13.915 0 12.742 0.237 11.653 0.711 C 10.54 1.184 9.568 1.836 8.74 2.664 C 7.911 3.493 7.259 4.464 6.786 5.578 C 6.312 6.667 6.075 7.84 6.075 9.095 L 6.075 13.642 L 4.547 13.642 C 3.268 13.642 2.191 14.08 1.314 14.957 C 0.438 15.833 0 16.911 0 18.19 L 0 28.812 C 0 30.091 0.438 31.169 1.314 32.045 C 2.191 32.921 3.268 33.359 4.547 33.359 L 25.792 33.359 C 27.071 33.359 28.149 32.921 29.025 32.045 C 29.901 31.169 30.34 30.091 30.34 28.812 L 30.34 18.19 C 30.34 16.911 29.901 15.833 29.025 14.957 C 28.149 14.08 27.071 13.642 25.792 13.642 Z M 9.095 9.095 C 9.095 7.437 9.693 6.01 10.889 4.814 C 12.085 3.618 13.512 3.02 15.17 3.02 C 16.828 3.02 18.255 3.618 19.451 4.814 C 20.647 6.01 21.245 7.437 21.245 9.095 L 21.245 13.642 L 9.095 13.642 L 9.095 9.095 Z M 27.284 28.812 C 27.284 29.262 27.148 29.623 26.876 29.896 C 26.603 30.168 26.242 30.304 25.792 30.304 L 4.547 30.304 C 4.097 30.304 3.736 30.168 3.464 29.896 C 3.191 29.623 3.055 29.262 3.055 28.812 L 3.055 18.19 C 3.055 17.74 3.191 17.372 3.464 17.088 C 3.736 16.804 4.097 16.662 4.547 16.662 L 25.792 16.662 C 26.242 16.662 26.603 16.804 26.876 17.088 C 27.148 17.372 27.284 17.74 27.284 18.19 L 27.284 28.812 Z" id="Fill-1" fill="#FEF8F2"/>
  <path d="M 94.881 20.279 L 91.954 20.279 C 92.152 19.756 92.619 18.491 93.354 16.483 L 93.417 16.292 C 93.474 16.151 93.545 15.967 93.629 15.741 C 93.714 15.515 93.778 15.331 93.82 15.19 L 94.075 16.356 L 94.881 20.279 Z M 64.26 18.901 L 63.03 12.645 C 62.875 11.882 62.344 11.5 61.44 11.5 L 55.757 11.5 L 55.714 11.776 C 60.111 12.892 62.959 15.267 64.26 18.901 Z M 68.056 11.5 L 64.621 20.788 L 64.26 18.901 C 63.892 17.911 63.292 16.996 62.458 16.155 C 61.624 15.313 60.698 14.688 59.68 14.278 L 62.542 25.093 L 66.253 25.093 L 71.788 11.5 L 68.056 11.5 Z M 71.003 25.114 L 74.523 25.114 L 76.729 11.5 L 73.209 11.5 L 71.003 25.114 Z M 87.289 11.839 C 86.314 11.458 85.26 11.267 84.129 11.267 C 82.391 11.267 80.97 11.684 79.867 12.518 C 78.764 13.352 78.206 14.433 78.192 15.762 C 78.178 17.204 79.203 18.434 81.267 19.452 C 81.945 19.777 82.419 20.067 82.687 20.321 C 82.956 20.576 83.09 20.852 83.09 21.148 C 83.09 21.573 82.878 21.898 82.454 22.124 C 82.03 22.35 81.542 22.463 80.991 22.463 C 79.775 22.463 78.673 22.23 77.683 21.763 L 77.217 21.53 L 76.729 24.584 C 77.775 25.064 79.083 25.305 80.652 25.305 C 82.49 25.319 83.963 24.902 85.073 24.054 C 86.183 23.205 86.752 22.074 86.78 20.661 C 86.78 19.162 85.791 17.932 83.811 16.971 C 83.119 16.618 82.617 16.321 82.306 16.08 C 81.995 15.84 81.839 15.571 81.839 15.275 C 81.839 14.964 82.012 14.691 82.359 14.458 C 82.705 14.225 83.203 14.108 83.854 14.108 C 84.843 14.094 85.72 14.264 86.483 14.617 L 86.801 14.787 L 87.289 11.839 Z M 96.301 11.5 L 93.587 11.5 C 92.668 11.5 92.053 11.882 91.742 12.645 L 86.526 25.114 L 90.215 25.114 L 90.958 23.078 L 95.453 23.078 C 95.524 23.389 95.665 24.068 95.877 25.114 L 99.143 25.114 L 96.301 11.5 Z M 101.857 4.714 L 101.857 31.857 C 101.857 32.592 101.589 33.228 101.051 33.766 C 100.514 34.303 99.878 34.571 99.143 34.571 L 55.714 34.571 C 54.979 34.571 54.343 34.303 53.806 33.766 C 53.269 33.228 53 32.592 53 31.857 L 53 4.714 C 53 3.979 53.269 3.343 53.806 2.806 C 54.343 2.269 54.979 2 55.714 2 L 99.143 2 C 99.878 2 100.514 2.269 101.051 2.806 C 101.589 3.343 101.857 3.979 101.857 4.714 Z" id="Fill-1" fill="#FEF8F2"/>
  <path d="M 37.122 63.171 C 36.704 63.363 36.286 63.561 35.863 63.749 C 33.026 65.012 30.188 66.273 27.35 67.535 C 24.073 68.994 20.798 70.458 17.517 71.908 C 16.959 72.154 16.431 72.563 15.782 72.467 C 15.379 72.407 14.941 72.293 14.611 72.069 C 13.157 71.079 11.738 70.038 10.303 69.019 C 10.012 68.812 9.676 68.824 9.414 69.033 C 9.114 69.272 9.032 69.566 9.189 69.914 C 10.09 71.906 10.996 73.896 11.9 75.886 C 12.253 76.664 12.603 77.443 12.958 78.219 C 13.341 79.056 14.229 79.342 15.024 78.883 C 18.911 76.638 22.797 74.391 26.684 72.147 C 29.281 70.648 31.881 69.155 34.477 67.655 C 35.839 66.869 37.196 66.074 38.555 65.284 C 38.593 65.262 38.635 65.247 38.748 65.196 C 39.076 65.837 39.424 66.459 39.719 67.106 C 40.731 69.323 41.127 71.663 40.965 74.083 C 40.805 76.468 40.071 78.686 38.831 80.734 C 37.761 82.499 36.418 84.027 34.808 85.317 C 33.199 86.606 31.428 87.623 29.521 88.403 C 28.139 88.968 26.713 89.372 25.25 89.673 C 23.209 90.091 21.154 90.155 19.082 90.082 C 17.651 90.032 16.253 89.78 14.858 89.492 C 14.425 89.403 14.006 89.252 13.576 89.143 C 13.003 88.997 12.494 89.196 12.01 89.474 C 10.578 90.296 9.151 91.127 7.716 91.944 C 7.545 92.041 7.336 92.107 7.14 92.118 C 6.763 92.139 6.477 91.775 6.573 91.41 C 6.767 90.675 6.982 89.945 7.182 89.212 C 7.338 88.643 7.503 88.075 7.631 87.5 C 7.797 86.756 7.445 86.233 6.861 85.812 C 5.462 84.805 4.243 83.606 3.201 82.239 C 2.042 80.716 1.169 79.043 0.608 77.201 C 0.209 75.89 0.023 74.551 0.002 73.198 C -0.015 72.121 0.104 71.045 0.335 69.979 C 0.835 67.666 1.845 65.598 3.29 63.747 C 4.742 61.888 6.513 60.376 8.547 59.171 C 10.09 58.256 11.722 57.541 13.434 57.021 C 14.267 56.768 15.131 56.616 15.982 56.42 C 17.916 55.975 19.883 55.956 21.847 56.038 C 22.868 56.08 23.891 56.231 24.898 56.414 C 25.934 56.603 26.971 56.835 27.975 57.15 C 29.355 57.582 30.673 58.179 31.94 58.885 C 33.74 59.887 35.35 61.126 36.746 62.642 C 36.862 62.768 36.972 62.9 37.082 63.032 C 37.101 63.055 37.101 63.095 37.122 63.171" id="Fill-1" mask="url(#mask-4)" style="fill: rgb(254, 248, 242);"/>
  <path d="M 67.83 77.714 C 67.776 76.736 68.224 75.799 69.175 74.903 C 70.126 74.006 71.823 73.558 74.268 73.558 C 76.115 73.558 79.076 74.427 83.15 76.166 C 80.163 80.131 76.957 82.115 73.534 82.115 C 69.895 82.115 67.993 80.648 67.83 77.714 Z M 94.804 54 C 96.379 54 97.724 54.557 98.838 55.671 C 99.952 56.785 100.508 58.129 100.508 59.705 L 100.508 78.855 C 99.204 78.419 97.194 77.714 94.478 76.736 C 91.761 75.759 89.725 75.025 88.366 74.536 C 88.909 73.449 89.452 72.295 89.995 71.072 C 90.539 69.85 90.919 68.886 91.136 68.18 L 91.463 67.12 L 84.291 67.12 L 84.291 64.594 L 93.173 64.594 L 93.173 63.046 L 84.291 63.046 L 84.291 58.89 L 80.135 58.89 L 80.135 63.046 L 71.171 63.046 L 71.171 64.594 L 80.135 64.594 L 80.135 67.12 L 72.638 67.12 L 72.638 68.506 L 87.143 68.506 C 86.6 70.135 85.866 71.765 84.943 73.395 C 80.542 72.037 77.093 71.358 74.594 71.358 C 71.443 71.358 69.257 71.996 68.034 73.273 C 66.811 74.549 66.309 76.138 66.526 78.04 C 66.689 79.615 67.395 81.042 68.645 82.319 C 69.895 83.595 71.823 84.233 74.431 84.233 C 76.875 84.233 79.144 83.622 81.235 82.4 C 83.328 81.177 85.079 79.588 86.491 77.632 C 90.566 79.479 95.238 81.87 100.508 84.804 C 100.508 85.835 100.25 86.786 99.733 87.656 C 99.218 88.524 98.525 89.217 97.656 89.734 C 96.786 90.25 95.836 90.508 94.804 90.508 L 69.704 90.508 C 68.128 90.508 66.784 89.951 65.671 88.838 C 64.557 87.724 64 86.379 64 84.804 L 64 59.705 C 64 58.129 64.557 56.785 65.671 55.671 C 66.784 54.557 68.128 54 69.704 54 L 94.804 54 Z" id="Fill-1" mask="url(#mask-6)" style="fill: rgb(254, 248, 242);"/>
  <path d="M 172.933 4.719 L 172.933 31.904 C 172.933 32.64 172.664 33.277 172.126 33.815 C 171.588 34.353 170.951 34.622 170.215 34.622 L 126.719 34.622 C 125.982 34.622 125.345 34.353 124.807 33.815 C 124.269 33.277 124 32.64 124 31.904 L 124 4.719 C 124 3.982 124.269 3.345 124.807 2.807 C 125.345 2.269 125.982 2 126.719 2 L 170.215 2 C 170.951 2 171.588 2.269 172.126 2.807 C 172.664 3.345 172.933 3.982 172.933 4.719 Z M 165.287 31.33 L 165.245 31.351 L 165.181 31.351 C 165.153 31.366 165.125 31.387 165.096 31.415 C 165.054 31.429 165.032 31.458 165.032 31.5 C 165.018 31.528 165.011 31.571 165.011 31.627 C 165.011 31.67 165.018 31.705 165.032 31.734 C 165.032 31.762 165.054 31.79 165.096 31.819 C 165.125 31.847 165.153 31.868 165.181 31.882 C 165.21 31.896 165.245 31.904 165.287 31.904 C 165.344 31.904 165.386 31.896 165.415 31.882 C 165.415 31.868 165.429 31.854 165.457 31.84 L 165.5 31.819 C 165.514 31.804 165.535 31.776 165.563 31.734 C 165.578 31.705 165.585 31.67 165.585 31.627 C 165.585 31.571 165.578 31.528 165.563 31.5 C 165.549 31.486 165.528 31.458 165.5 31.415 C 165.5 31.401 165.486 31.387 165.457 31.373 L 165.415 31.351 C 165.401 31.351 165.379 31.348 165.351 31.341 C 165.323 31.334 165.302 31.33 165.287 31.33 L 165.287 31.33 Z M 163.631 31.755 L 164.247 31.755 L 164.247 27.72 L 163.631 27.72 L 163.631 29.228 C 163.418 28.944 163.114 28.803 162.718 28.803 C 162.321 28.803 161.985 28.948 161.709 29.238 C 161.433 29.529 161.294 29.886 161.294 30.311 C 161.294 30.736 161.433 31.093 161.709 31.383 C 161.985 31.673 162.321 31.819 162.718 31.819 C 163.128 31.819 163.433 31.677 163.631 31.394 L 163.631 31.755 Z M 160.657 28.803 C 160.332 28.803 160.084 28.944 159.914 29.228 L 159.914 28.888 L 159.298 28.888 L 159.298 31.755 L 159.914 31.755 L 159.914 30.141 C 159.914 29.645 160.119 29.397 160.53 29.397 C 160.672 29.397 160.799 29.426 160.912 29.482 L 161.103 28.888 C 160.99 28.831 160.841 28.803 160.657 28.803 Z M 157.833 31.755 L 158.47 31.755 L 158.47 28.888 L 157.833 28.888 L 157.833 29.228 C 157.62 28.944 157.323 28.803 156.941 28.803 C 156.53 28.803 156.187 28.944 155.911 29.228 C 155.635 29.511 155.496 29.872 155.496 30.311 C 155.496 30.75 155.635 31.111 155.911 31.394 C 156.187 31.677 156.53 31.819 156.941 31.819 C 157.337 31.819 157.634 31.677 157.833 31.394 L 157.833 31.755 Z M 152.629 30.311 C 152.629 30.75 152.767 31.111 153.043 31.394 C 153.32 31.677 153.691 31.819 154.158 31.819 C 154.569 31.819 154.909 31.705 155.178 31.479 L 154.881 30.969 C 154.626 31.153 154.378 31.238 154.137 31.224 C 153.882 31.224 153.674 31.139 153.511 30.969 C 153.348 30.799 153.266 30.58 153.266 30.311 C 153.266 30.042 153.348 29.822 153.511 29.652 C 153.674 29.482 153.882 29.397 154.137 29.397 C 154.406 29.397 154.654 29.482 154.881 29.652 L 155.178 29.143 C 154.895 28.916 154.555 28.803 154.158 28.803 C 153.691 28.803 153.32 28.944 153.043 29.228 C 152.767 29.511 152.629 29.872 152.629 30.311 Z M 151.992 28.803 C 151.666 28.803 151.419 28.944 151.249 29.228 L 151.249 28.888 L 150.612 28.888 L 150.612 31.755 L 151.249 31.755 L 151.249 30.141 C 151.249 29.645 151.454 29.397 151.865 29.397 C 152.006 29.397 152.134 29.426 152.247 29.482 L 152.438 28.888 C 152.311 28.831 152.162 28.803 151.992 28.803 Z M 148.615 28.803 C 148.205 28.803 147.865 28.944 147.596 29.228 C 147.327 29.511 147.192 29.872 147.192 30.311 C 147.192 30.764 147.33 31.128 147.606 31.405 C 147.883 31.681 148.233 31.819 148.658 31.819 C 149.125 31.819 149.514 31.684 149.826 31.415 L 149.528 30.948 C 149.274 31.16 148.998 31.266 148.7 31.266 C 148.219 31.266 147.929 31.033 147.829 30.566 L 149.975 30.566 L 149.975 30.311 C 149.975 29.858 149.847 29.493 149.592 29.217 C 149.337 28.941 149.012 28.803 148.615 28.803 Z M 146.789 31.606 L 146.619 31.075 C 146.435 31.174 146.251 31.224 146.067 31.224 C 145.798 31.224 145.663 31.068 145.663 30.757 L 145.663 29.461 L 146.683 29.461 L 146.683 28.888 L 145.663 28.888 L 145.663 28.017 L 145.026 28.017 L 145.026 28.888 L 144.431 28.888 L 144.431 29.461 L 145.026 29.461 L 145.026 30.757 C 145.026 31.465 145.359 31.819 146.024 31.819 C 146.321 31.819 146.576 31.748 146.789 31.606 Z M 144.028 30.884 C 144.028 30.403 143.695 30.12 143.03 30.035 L 142.732 29.992 C 142.407 29.936 142.244 29.836 142.244 29.695 C 142.244 29.482 142.421 29.376 142.775 29.376 C 143.1 29.376 143.405 29.454 143.688 29.61 L 143.943 29.1 C 143.631 28.902 143.242 28.803 142.775 28.803 C 142.407 28.803 142.116 28.888 141.904 29.058 C 141.692 29.228 141.585 29.454 141.585 29.737 C 141.585 30.205 141.918 30.481 142.584 30.566 L 142.86 30.608 C 143.199 30.665 143.369 30.764 143.369 30.905 C 143.369 31.146 143.15 31.266 142.711 31.266 C 142.357 31.266 142.038 31.167 141.755 30.969 L 141.479 31.458 C 141.833 31.698 142.244 31.819 142.711 31.819 C 143.122 31.819 143.444 31.734 143.677 31.564 C 143.911 31.394 144.028 31.167 144.028 30.884 Z M 140.247 31.755 L 140.863 31.755 L 140.863 28.888 L 140.247 28.888 L 140.247 29.228 C 140.007 28.944 139.702 28.803 139.334 28.803 C 138.923 28.803 138.584 28.944 138.315 29.228 C 138.046 29.511 137.911 29.872 137.911 30.311 C 137.911 30.75 138.046 31.111 138.315 31.394 C 138.584 31.677 138.923 31.819 139.334 31.819 C 139.731 31.819 140.035 31.677 140.247 31.394 L 140.247 31.755 Z M 136.722 31.755 L 137.359 31.755 L 137.359 29.95 C 137.359 29.61 137.256 29.337 137.051 29.132 C 136.846 28.927 136.566 28.817 136.212 28.803 C 135.759 28.803 135.426 28.973 135.214 29.313 C 135.016 28.973 134.697 28.803 134.258 28.803 C 133.918 28.803 133.642 28.944 133.43 29.228 L 133.43 28.888 L 132.793 28.888 L 132.793 31.755 L 133.43 31.755 L 133.43 30.162 C 133.43 29.652 133.663 29.397 134.131 29.397 C 134.555 29.397 134.768 29.652 134.768 30.162 L 134.768 31.755 L 135.384 31.755 L 135.384 30.162 C 135.384 29.652 135.617 29.397 136.085 29.397 C 136.509 29.397 136.722 29.652 136.722 30.162 L 136.722 31.755 Z M 165.287 31.84 C 165.259 31.84 165.231 31.833 165.202 31.819 C 165.188 31.819 165.167 31.804 165.139 31.776 C 165.11 31.748 165.096 31.727 165.096 31.712 C 165.082 31.684 165.075 31.656 165.075 31.627 C 165.075 31.585 165.082 31.557 165.096 31.543 C 165.096 31.514 165.11 31.486 165.139 31.458 L 165.16 31.436 C 165.188 31.436 165.202 31.429 165.202 31.415 C 165.231 31.401 165.259 31.394 165.287 31.394 C 165.33 31.394 165.358 31.401 165.372 31.415 L 165.457 31.458 L 165.5 31.543 L 165.5 31.564 C 165.514 31.592 165.521 31.613 165.521 31.627 L 165.5 31.649 L 165.5 31.712 L 165.478 31.734 L 165.457 31.776 C 165.429 31.804 165.401 31.819 165.372 31.819 C 165.358 31.833 165.33 31.84 165.287 31.84 L 165.287 31.84 Z M 161.932 30.311 C 161.932 30.056 162.013 29.84 162.176 29.663 C 162.339 29.486 162.548 29.397 162.802 29.397 C 163.057 29.397 163.266 29.486 163.429 29.663 C 163.592 29.84 163.673 30.056 163.673 30.311 C 163.673 30.58 163.592 30.799 163.429 30.969 C 163.266 31.139 163.057 31.224 162.802 31.224 C 162.548 31.224 162.339 31.136 162.176 30.959 C 162.013 30.782 161.932 30.566 161.932 30.311 Z M 156.155 30.311 C 156.155 30.042 156.233 29.822 156.388 29.652 C 156.544 29.482 156.749 29.397 157.004 29.397 C 157.259 29.397 157.468 29.486 157.631 29.663 C 157.794 29.84 157.875 30.056 157.875 30.311 C 157.875 30.58 157.797 30.799 157.642 30.969 C 157.486 31.139 157.273 31.224 157.004 31.224 C 156.749 31.224 156.544 31.139 156.388 30.969 C 156.233 30.799 156.155 30.58 156.155 30.311 Z M 148.594 29.376 C 149.019 29.376 149.267 29.603 149.337 30.056 L 147.851 30.056 C 147.921 29.603 148.169 29.376 148.594 29.376 Z M 138.548 30.311 C 138.548 30.042 138.626 29.822 138.782 29.652 C 138.938 29.482 139.15 29.397 139.419 29.397 C 139.674 29.397 139.879 29.486 140.035 29.663 C 140.191 29.84 140.269 30.056 140.269 30.311 C 140.269 30.58 140.191 30.799 140.035 30.969 C 139.879 31.139 139.674 31.224 139.419 31.224 C 139.15 31.224 138.938 31.139 138.782 30.969 C 138.626 30.799 138.548 30.58 138.548 30.311 Z M 165.351 31.755 L 165.415 31.755 L 165.33 31.649 L 165.372 31.649 L 165.394 31.627 C 165.408 31.613 165.415 31.592 165.415 31.564 C 165.415 31.535 165.408 31.514 165.394 31.5 L 165.372 31.479 L 165.181 31.479 L 165.181 31.755 L 165.245 31.755 L 165.245 31.649 L 165.266 31.649 L 165.351 31.755 Z M 165.351 31.572 L 165.351 31.626 L 165.245 31.626 L 165.245 31.545 L 165.351 31.545 L 165.351 31.572 Z M 165.521 22.219 L 165.606 22.219 L 165.606 21.794 L 165.5 21.794 L 165.372 22.07 L 165.245 21.794 L 165.139 21.794 L 165.139 22.219 L 165.202 22.219 L 165.202 21.9 L 165.33 22.176 L 165.415 22.176 L 165.521 21.9 L 165.521 22.219 Z M 164.905 21.858 L 165.054 21.858 L 165.054 21.794 L 164.693 21.794 L 164.693 21.858 L 164.841 21.858 L 164.841 22.219 L 164.905 22.219 L 164.905 21.858 Z M 149.167 6.524 C 151.008 8.039 152.265 9.918 152.937 12.163 C 153.61 14.407 153.613 16.651 152.948 18.895 C 152.282 21.139 151.022 23.012 149.167 24.513 C 150.98 25.716 152.969 26.318 155.135 26.318 C 156.608 26.318 158.01 26.031 159.341 25.458 C 160.672 24.884 161.818 24.116 162.781 23.153 C 163.744 22.191 164.512 21.044 165.086 19.713 C 165.659 18.382 165.946 16.98 165.946 15.508 C 165.946 14.049 165.659 12.655 165.086 11.324 C 164.512 9.993 163.744 8.846 162.781 7.883 C 161.818 6.92 160.668 6.152 159.33 5.579 C 157.992 5.005 156.594 4.719 155.135 4.719 C 152.969 4.719 150.98 5.32 149.167 6.524 Z M 148.467 7.034 C 146.683 8.435 145.465 10.202 144.814 12.332 C 144.162 14.463 144.159 16.591 144.803 18.715 C 145.447 20.838 146.668 22.601 148.467 24.003 C 150.265 22.601 151.486 20.838 152.13 18.715 C 152.774 16.591 152.771 14.463 152.12 12.332 C 151.468 10.202 150.251 8.435 148.467 7.034 Z M 147.766 6.524 C 145.953 5.32 143.964 4.719 141.798 4.719 C 140.339 4.719 138.941 5.005 137.603 5.579 C 136.265 6.152 135.115 6.92 134.152 7.883 C 133.189 8.846 132.421 9.993 131.848 11.324 C 131.274 12.655 130.987 14.049 130.987 15.508 C 130.987 16.98 131.274 18.382 131.848 19.713 C 132.421 21.044 133.189 22.191 134.152 23.153 C 135.115 24.116 136.262 24.884 137.593 25.458 C 138.923 26.031 140.325 26.318 141.798 26.318 C 143.964 26.318 145.953 25.716 147.766 24.513 C 145.911 22.998 144.651 21.118 143.985 18.874 C 143.32 16.63 143.323 14.389 143.996 12.152 C 144.668 9.915 145.925 8.039 147.766 6.524 Z" id="Fill-1" mask="url(#mask-8)" style="fill: rgb(254, 248, 242);"/>
</svg>